/* XPM */
static char *_1458_55f5282145513c63122cc9f5099e6fc14cfc3d5399979afc54e03eec3ae1791b[] = {
/* columns rows colors chars-per-pixel */
"30 30 101 2 ",
"   c #010101",
".  c #0D0707",
"X  c #040804",
"o  c #090A07",
"O  c #0D0A0A",
"+  c #140E0D",
"@  c #0A140B",
"#  c #0C1A0E",
"$  c #11110D",
"%  c #151512",
"&  c #1C1413",
"*  c #131810",
"=  c #0E2312",
"-  c #0E2A14",
";  c #112614",
":  c #1B2217",
">  c #122915",
",  c #1A2219",
"<  c #142E18",
"1  c #182D19",
"2  c #16341A",
"3  c #1C341D",
"4  c #173C1E",
"5  c #1A3B1F",
"6  c #22251A",
"7  c #242B1D",
"8  c #28291D",
"9  c #222420",
"0  c #2E2A21",
"q  c #362524",
"w  c #3A2424",
"e  c #332B25",
"r  c #3E2827",
"t  c #362529",
"y  c #32292C",
"u  c #3E2B2B",
"i  c #353025",
"p  c #3A3026",
"a  c #3A2C32",
"s  c #422C2B",
"d  c #44302C",
"f  c #4A322F",
"g  c #4C3533",
"h  c #4A373D",
"j  c #543935",
"k  c #593936",
"l  c #553C39",
"z  c #5D3D3A",
"x  c #613E3B",
"c  c #1C4222",
"v  c #204324",
"b  c #204C27",
"n  c #234C28",
"m  c #23522A",
"M  c #28562D",
"N  c #2A5C30",
"B  c #2C6233",
"V  c #2F6837",
"C  c #306937",
"Z  c #316C39",
"A  c #36753E",
"S  c #37783F",
"D  c #57403E",
"F  c #5A413E",
"G  c #62403E",
"H  c #4F3F47",
"J  c #513F46",
"K  c #377840",
"L  c #397B41",
"P  c #524046",
"I  c #5B4341",
"U  c #544249",
"Y  c #5C4549",
"T  c #644744",
"R  c #694743",
"E  c #664946",
"W  c #6A4946",
"Q  c #60474B",
"!  c #63494C",
"~  c #6B4C4A",
"^  c #724945",
"/  c #724E4B",
"(  c #77514C",
")  c #79524D",
"_  c #7C5551",
"`  c #805651",
"'  c #855954",
"]  c #8A5C56",
"[  c #3C8345",
"{  c #3D8847",
"}  c #3E8948",
"|  c #408D4A",
" . c #44914E",
".. c #479451",
"X. c #499653",
"o. c #4A9954",
"O. c #54A45E",
"+. c #56A760",
"@. c #57A962",
"#. c #59AB64",
"$. c #61B66C",
/* pixels */
"H Y / ( ( ( ( ( ( ) ( Y P P P P I / ( ( ( ( ( ) ) ( Y P H P ",
"Y Q / ( ( ( ( ( ( ( ( ~ Y U U U E / ( ( ( ( ( ( ( ( ~ Y U H ",
"/ / ( ( ( ( ( ( ) ( ) ' _ ! U ~ ( ( ( ( ( ( ( ( ( ( _ _ Q U ",
"( ( ( ( ( ( ( ( ( ) ) ] ] ! Y ~ ` ) ) ) ) ( ( ( ( _ ] ' ! H ",
"( ( ( ( ( ( ( ( ( ( ( ' _ Y U ~ ( ( ( ^ ( ( ( ( ( ( ' ' ! P ",
"( ( ( ( ( ) ) ) ( z s f g t t u s s s s z ( ` ) ( _ ] _ Y H ",
"( ( ( ( ( ( ( ( R q O o O o o o o o o O q R / / ( ( ] ' ! H ",
"( ( ( ) ) G r w q 7 2 4 c c c c c c 4 4 7 q w r z _ ] ' ! P ",
"( ( ( ( W d O X @ v A L [ { { [ { { L A c @ X O s / ' ' Y H ",
") ) ) x w 7 5 4 c V [ | } } | } } } { [ B c 4 5 7 w ^ ] ! H ",
"( / R s * 5 Z A A L { { } } } } } { } } L A A V 2 * j ( Y U ",
"E z q 6 c B L { [ { { { } } } } } } } { { [ [ L B c 8 q h U ",
"g q * 2 Z [ { } { { | { } } { } { } }  ... .| { [ V 2 * y H ",
"& , c B L { | | | | { { { } { } { } o.@.#.#.o.{ { L B c & % ",
"  = V [ { L Z V Z L } { } } } { }  .X.@.$.$.@.X. .{ [ B =   ",
"  = A } } N ; # > N } { } } } | } } } X.O.$.$.#.o.} { Z =   ",
"  ; Z } } b X     n L | | L S C B B Z L ..O.#.+.o.| | Z ;   ",
"  ; A  .} m X   X v K L L L V 1 @ @ 5 Z L | |  .| { | A ;   ",
"  ; A } [ N 2 ; 1 M A K A K N @     ; C K K K L { [ { Z ;   ",
"  ; A [ K A C V C A S A L L N *     > Z K K K L K L { A ;   ",
"  = C [ K K K L L K S S K K Z v 3 3 n Z K K A K A K [ V ;   ",
"  * N A A A K K K A S S A K K Z Z Z Z A K K A S A A A N *   ",
"r e 3 b A S S A A K K A K A K K L L L A A A K A K A c 3 9 9 ",
"( j & > N C C A A K A K A K K K S S A S A A A C Z B 1 & a J ",
") R g 0 1 - < m A S S S L L L L L L L L L A m < - 1 p j J P ",
"( ( ( j & . $ 3 B C Z Z Z Z V V C C C C C B 3 $ O & x ) Q H ",
"T / ' ) G k k i ; = > > > > > - ; = : > = ; i k z z R ~ Y H ",
"l E ) ' ' ] _ f + O O + O O O O O + O + O $ f ) ] _ R I J U ",
"P I E R ~ ~ R l s u u a a a a a u u s u u d l ~ ~ R I P P U ",
"U P D D F D D F F F I I U U U U U I F I I I F D F F P P H H "
};
