/* XPM */
static char *_3664_d504d0f4ea18399dbdc1e3c27e4ff1c6f856eef8cc475cc78c4cfe56b6034466[] = {
/* columns rows colors chars-per-pixel */
"30 30 108 2 ",
"   c #000000",
".  c #0D0707",
"X  c #050A06",
"o  c #0C0B09",
"O  c #130E0E",
"+  c #071008",
"@  c #0C140C",
"#  c #11100D",
"$  c #0E1F10",
"%  c #151512",
"&  c #1C1513",
"*  c #141B12",
"=  c #2F1C1D",
"-  c #0E2312",
";  c #0E2A14",
":  c #112614",
">  c #122814",
",  c #172118",
"<  c #142E18",
"1  c #182D19",
"2  c #16351B",
"3  c #1B341D",
"4  c #17391D",
"5  c #1A391E",
"6  c #2F211E",
"7  c #222A1C",
"8  c #28291D",
"9  c #2B1E23",
"0  c #301F20",
"q  c #1A3E20",
"w  c #222420",
"e  c #2E2A21",
"r  c #362322",
"t  c #3A2524",
"y  c #302B22",
"u  c #3E2827",
"i  c #3F2728",
"p  c #32292C",
"a  c #3E2C2B",
"s  c #353025",
"d  c #3A2C32",
"f  c #402726",
"g  c #412E2C",
"h  c #4A322F",
"j  c #4D3431",
"k  c #43343A",
"l  c #4A363B",
"z  c #523535",
"x  c #543935",
"c  c #593936",
"v  c #553C39",
"b  c #5D3D3A",
"n  c #613E3B",
"m  c #1D4323",
"M  c #1F4C27",
"N  c #204524",
"B  c #214B27",
"V  c #234B28",
"C  c #24512A",
"Z  c #28552D",
"A  c #29592F",
"S  c #2B5C31",
"D  c #2C6334",
"F  c #2E6836",
"G  c #306937",
"H  c #316C39",
"J  c #36753E",
"K  c #37783F",
"L  c #57403E",
"P  c #59413E",
"I  c #4F3F47",
"U  c #513F46",
"Y  c #377840",
"T  c #397B41",
"R  c #534046",
"E  c #5B4341",
"W  c #544249",
"Q  c #5C4549",
"!  c #644643",
"~  c #694642",
"^  c #664946",
"/  c #6A4946",
"(  c #60464A",
")  c #63484C",
"_  c #6B4C4A",
"`  c #724A46",
"'  c #724E4A",
"]  c #77514C",
"[  c #79524D",
"{  c #7C5551",
"}  c #805651",
"|  c #855954",
" . c #8A5B55",
".. c #3C8445",
"X. c #3D8847",
"o. c #3E8A48",
"O. c #418D4B",
"+. c #44914E",
"@. c #469350",
"#. c #489653",
"$. c #4B9A55",
"%. c #529E5B",
"&. c #55A35F",
"*. c #57AA62",
"=. c #5AAD65",
"-. c #5CB067",
";. c #5EB169",
":. c #61B66C",
/* pixels */
"I Q ' ] ] ] ] [ ] [ ] Q R R R I Q ' ] ] ] ] ] ] ] ] Q R I R ",
"Q ( ' ] ] ] ] ] ] ] ] _ Q W W W ^ ' ] ] ] ] ] ] ] ] _ Q W I ",
"' ' ] ] ] ] ] ] ] ] [ { { Q W _ ' ] ] ] ] ] ] ] ] ] } { Q W ",
"] ] ] ] ] ] ] ] ] ] [  .| ( Q _ [ [ ] ] ] ] ] ] ] { | | ) I ",
"] ] ] ] ] ] ] ] ] ] {  .| ) Q _ ] ] ] [ ] [ ] ] ] ] | | Q R ",
"] ] ] ] ] ] ] ] ] ] {  .| ) Q ' } [ [ [ [ [ [ [ ] { | | Q R ",
"] ] ] ] ] ] ] [ ] ' ' } { Q W _ ' ' ' ] ] ' ' ' ] ]  .| ) I ",
"] ] ] ] ] [ [ } ] x i f i 9 9 r t t r r t r r f b {  .| ) W ",
"] ] ] ] ] ' / ` ~ r o X + o + o + + o o X + X @ g ` | | ) I ",
"] ] ] [ [ b r = e 7 q m M B M M M M M B B B m 5 7 u `  .) I ",
"' ] ] ] / g @ X @ m J ..X.X.X.X.X.X.X.........H 2 % x ' ( W ",
"~ ' | ~ 6 7 m m B F ..o.o.O.O.o.+.o.O.O.O.O.o.T S N 8 0 I W ",
"L ~ / j * 4 H J J ..o.o.o.o.o.o.X.o.o.o.o.o.o.....G 2 * d k ",
"R l 6 7 B D ........o.o.o.o.o.o.o.o.o.X.X.o.o.o...T D m * % ",
"k p * 4 H ..o.+.+.#.@.o.X.o.o.o.o.o.o.o.o.o.o.O.O.X...D -   ",
"O * B G ....o.$.*.-.*.#.o.o.o.X.o.o.o.o.o.o.o.O.o...O.H :   ",
"  - D ..X.O.$.*.:.;.%.@.O.T ..X.........J F S F K o.O.J -   ",
"  : J o.o.$.=.:.:.%.O.Y T Y T T T T T T V $ + $ A ..+.J :   ",
"  : J o.X.@.&.&.%.O.H A V V Z H J Y T J m       B ..o.J :   ",
"  : J ..T T T T T T H 3 . X : S T J Y J N X   X m Y o.J >   ",
"  - F ..Y J J J J Y G :     @ A T J T J A 5 < 3 S J ..G :   ",
"  : A J Y Y Y J Y T G 1     $ S T T J Y J H H J J J J S $   ",
"u y < M J T J Y Y Y H V q q M G T J J Y T T T T T H M 2 w 9 ",
"' x = > S G G H Y Y Y Y H Y Y Y Y J J T J J H G G S 1 & d I ",
"{ / z 8 1 ; < C J K T ..T T T T T T T T T J C < ; 1 a z U W ",
"' ] ] c & . # 3 D G G G G G H H G G G G F D q O . & b [ ) I ",
"! ' | [ n c c s : - : > , ; ; ; > : : > ; - s c c b ~ _ R W ",
"v ~ [ | |  .} h O . O o O o o o o . O O . O j }  .{ ^ E R R ",
"R E ! / / _ / v g a a a d d d d a a g g a g v / _ / Q R I R ",
"I R E L L L L L P P E Q W R W W W E L E E L L b L L E R I R "
};
