/* XPM */
static char *_0376_35259406a285b750fcdef1aac493ab57459efdb05f65cd492855d00b138971e8[] = {
/* columns rows colors chars-per-pixel */
"30 30 99 2 ",
"   c #010101",
".  c #0D0707",
"X  c #040804",
"o  c #090A07",
"O  c #0D0A0A",
"+  c #140E0D",
"@  c #0A140B",
"#  c #0C1A0E",
"$  c #11110D",
"%  c #151512",
"&  c #1C1413",
"*  c #131810",
"=  c #0E2312",
"-  c #0E2A14",
";  c #112614",
":  c #1B2217",
">  c #122915",
",  c #142E18",
"<  c #182D19",
"1  c #16341A",
"2  c #1C341D",
"3  c #173C1E",
"4  c #1A3B1F",
"5  c #22251A",
"6  c #242B1D",
"7  c #28291D",
"8  c #222420",
"9  c #362524",
"0  c #3A2424",
"q  c #332B25",
"w  c #3E2827",
"e  c #362529",
"r  c #32292C",
"t  c #3E2B2B",
"y  c #353025",
"u  c #3A3026",
"i  c #3A2C32",
"p  c #422C2B",
"a  c #44302C",
"s  c #4A322F",
"d  c #4C3533",
"f  c #4A373D",
"g  c #523535",
"h  c #543935",
"j  c #593936",
"k  c #553C39",
"l  c #5D3D3A",
"z  c #613E3B",
"x  c #1C4222",
"c  c #204324",
"v  c #204C27",
"b  c #234C28",
"n  c #23522A",
"m  c #28562D",
"M  c #2A5C30",
"N  c #2C6233",
"B  c #2F6837",
"V  c #306937",
"C  c #316C39",
"Z  c #36753E",
"A  c #37783F",
"S  c #57403E",
"D  c #5A413E",
"F  c #62403E",
"G  c #4F3F47",
"H  c #513F46",
"J  c #377840",
"K  c #397B41",
"L  c #524046",
"P  c #5B4341",
"I  c #544249",
"U  c #5C4549",
"Y  c #644744",
"T  c #694743",
"R  c #664946",
"E  c #6A4946",
"W  c #60474B",
"Q  c #63494C",
"!  c #6B4C4A",
"~  c #724945",
"^  c #724E4B",
"/  c #77514C",
"(  c #79524D",
")  c #7C5551",
"_  c #805651",
"`  c #855954",
"'  c #8A5C56",
"]  c #3C8345",
"[  c #3D8847",
"{  c #3E8948",
"}  c #408D4A",
"|  c #44914E",
" . c #479451",
".. c #499653",
"X. c #4A9954",
"o. c #54A45E",
"O. c #57A962",
"+. c #59AB64",
"@. c #61B66C",
/* pixels */
"G U ^ / / / / / / ( / U L L L L U ^ / / / / / / ( / U H H I ",
"U W ^ / / / / / / / / ! U I I I R ^ / / / / ( / / / ! U I H ",
"^ ^ / / / / / / ( / ( ` ) Q I ! ^ / / / / / / / / / _ ) U H ",
"/ / / / / / / / / ( ( ' ' Q U ! _ ( ( ( / / / / / / ' ` Q G ",
"/ / / / / / / / / / / ` ) U I ! / / ^ ^ / / / / / ( ` ` Q G ",
"/ / / / / ( ( ( / l p s d e e t p p p p l / _ / ( ( ' _ Q G ",
"/ / / / / / / / T 9 O o O o o o o o o O 9 E ^ ^ / ( ' ` Q G ",
"/ / / ( ( F w 0 9 6 1 3 x x x x x x 3 3 6 0 0 p D ( ' ` Q G ",
"/ / / / E a @ X @ c Z K ] [ ] ] [ [ K C x @ X O p ^ ` _ U G ",
"( ( ( F 0 5 4 3 x B ] { { { | { { { { ] B x 3 4 6 w ~ ' Q G ",
"/ ^ T a * 1 B Z Z K [ { [ { [ { { { { { K Z Z B 1 * h / U I ",
"E j 9 5 c N ] [ ] ] [ [ { { [ { { [ { { { ] ] K N x 7 9 f I ",
"d q * 1 B ] [ { | ..| { { { { [ { { { { { { { { ] V 1 * r G ",
"% : c B K [ [ X.O.+.o...[ [ { { { { { [ { } } } { K N x & % ",
"  = N ] { | X.o.@.@.O.X.{ { { { { { { { K C B V K { ] N =   ",
"  ; C [ { X.+.@.@.o.| | | { { { { { { { M > # > M { } C =   ",
"  ; Z { { X.O.+.o. .K C N N B J ] ] ] ] v       b [ | Z =   ",
"  ; Z { [ { | } } K C 2 $ @ < B K K K J c X   o b [ { J ;   ",
"  ; Z { ] ] ] K Z J V ;     @ M K Z K Z m < ; 1 M ] { Z >   ",
"  ; Z ] K J K Z J K V <     # M K K A A Z V B V Z K { C ;   ",
"  = V ] A A A A Z J C b 1 < c V J J A Z J K K K J J K B ;   ",
"  ; M Z Z Z A A J Z J C C C C J A Z A J Z Z J J J J J M *   ",
"w q 2 v C K A A A A A J K K K J A Z A Z A J A A K J x 2 5 8 ",
"^ h & < M V V C Z A A J J J J J Z J A A A A C B C M < & i H ",
"( E d 7 < - , n Z K K K K K K K K K K K K Z n < - < u g H I ",
"/ / / j & . $ 2 N V V V V V V V V V V V V N 2 $ . & l ) W G ",
"Y ^ ` ( z j j y ; = > > > > > - > ; ; ; = > y k l l T ! U G ",
"k T ( ` ` ' ) d + . + O O O O O O . + + O $ s _ ' _ R P H L ",
"H P R E E ! T k p t t i i i i i i p p p t p k T E T P L L H ",
"I L P k S S S D D P P I I I I I L P D P P P D S S P L L G I "
};
