/* XPM */
static char *_228_7074a82bacc0210006f026c17741c438736fc41bc78e10e1802656f9e8410815[] = {
/* columns rows colors chars-per-pixel */
"30 30 106 2 ",
"   c #000000",
".  c #0D0707",
"X  c #050A05",
"o  c #0C0C09",
"O  c #130E0E",
"+  c #071008",
"@  c #0B150C",
"#  c #11130E",
"$  c #0E1F10",
"%  c #1C1413",
"&  c #131A12",
"*  c #22171A",
"=  c #2F1B1C",
"-  c #0E2312",
";  c #0E2A14",
":  c #112614",
">  c #1A2217",
",  c #122814",
"<  c #172118",
"1  c #142E18",
"2  c #182D19",
"3  c #16351B",
"4  c #1B341D",
"5  c #1A3A1E",
"6  c #22251A",
"7  c #2F211E",
"8  c #242C1E",
"9  c #2B1E23",
"0  c #1A3E20",
"q  c #222420",
"w  c #2F282A",
"e  c #342422",
"r  c #392424",
"t  c #332B25",
"y  c #3E2827",
"u  c #3F2728",
"i  c #3E2C2B",
"p  c #353025",
"a  c #3A2C32",
"s  c #412827",
"d  c #412E2D",
"f  c #44302C",
"g  c #4A332F",
"h  c #4C3534",
"j  c #523535",
"k  c #553936",
"l  c #593936",
"z  c #553C39",
"x  c #5D3C39",
"c  c #613E3B",
"v  c #1E4323",
"b  c #1F4C27",
"n  c #204525",
"m  c #214B27",
"M  c #234B28",
"N  c #24512A",
"B  c #28552D",
"V  c #29592F",
"C  c #2B5C31",
"Z  c #2C6334",
"A  c #2F6937",
"S  c #306937",
"D  c #316C39",
"F  c #36753E",
"G  c #37783F",
"H  c #57403E",
"J  c #5A413E",
"K  c #63413E",
"L  c #4F3F47",
"P  c #513F46",
"I  c #377840",
"U  c #397C41",
"Y  c #524046",
"T  c #5B4341",
"R  c #544249",
"E  c #5C4549",
"W  c #654643",
"Q  c #694743",
"!  c #664946",
"~  c #6B4A46",
"^  c #60474B",
"/  c #63484C",
"(  c #6B4C4A",
")  c #724E4A",
"_  c #77514C",
"`  c #79524D",
"'  c #7D5551",
"]  c #805651",
"[  c #855954",
"{  c #895B55",
"}  c #916059",
"|  c #3C8445",
" . c #3D8847",
".. c #3E8A48",
"X. c #418D4B",
"o. c #44914E",
"O. c #469350",
"+. c #489653",
"@. c #4B9A55",
"#. c #4E9A58",
"$. c #529E5B",
"%. c #55A35F",
"&. c #57AA62",
"*. c #5AAD65",
"=. c #5CB067",
"-. c #61B66C",
/* pixels */
"L E ( ` _ _ _ _ _ ` ) E L Y Y L E _ ` _ _ _ _ _ ` ) E Y L L ",
"E / ) ` _ _ _ _ _ ` _ ( E R R R ! ~ _ _ _ _ _ _ _ _ ( E R R ",
"( ) ) ` _ _ _ _ _ _ _ ] ' E E ! ) ` _ _ _ _ _ _ ` ` ' ' E R ",
"` ` _ ` _ ` _ _ _ _ ` { [ / E ( _ _ _ ` _ ` _ _ _ ` { [ ^ L ",
"` _ _ _ _ _ ` ` ` ) ` { [ / E ( ` _ _ ` ` _ _ _ _ ` [ [ / Y ",
"_ _ _ _ _ ` ` ` ` ` ] { [ / E _ ] ` ` ` ` _ _ _ _ ` [ [ E Y ",
"_ _ _ ` _ _ ) ) ) ) ) [ ] E R / ) ) ) ) ~ ` ` ` _ ` [ ' / R ",
"_ _ _ ` ` x s e r r r s u 9 9 r r r r r k ` ] ] ` ` [ [ / Y ",
"` ` ` ` ~ f @ X o o + o o X o + + + X o t W ~ ~ ) ' [ [ E L ",
"` ` ` c r 6 5 v b b b b b b m m b b v 0 8 7 = r K { } [ ^ L ",
") ) ~ f & 4 D | | ................ .| F n @ X @ h ` [ ' E P ",
"! l 7 6 v Z G ....X...X.....X....... .| A n v v 8 r x ( E P ",
"h t & 3 A | ........| ..................| F F D 5 & 7 h L L ",
"% > n Z | .......................... . .| | | | Z n > * L E ",
"  $ Z U ....X.........................O.O.O.X...| D 5 : w a ",
"  : D X...................| ........@.&.=.&.@...| | S n < O ",
"  : F .. .G Z Z Z F | | | | | ..| | o.%.-.-.&.+.X.X.| S $   ",
"  , F o...V $ X & B G U U G I U U U I | #.-.-.*.@.....D :   ",
"  : F ..| n       0 F U G G D B M M V F X.#.%.$.O.| ..F :   ",
"  : F ..G n X   . n F I G I Z : X X 4 D U X.U U U I ..D :   ",
"  - D | G V 5 1 0 V I I I U C @     > S I F F F I I U S :   ",
"  : C F G F F D D F I F I U C $     2 S U I F I I I I C &   ",
"y t 4 m F U G U I I I F I I S n 5 5 B D U U I F U D b 4 6 q ",
"_ k % , V D S D F I F I I I I I F F F F F I D S S C 2 % a P ",
"` ! g t 2 ; 1 N F G G U U U U U U U U U U F N 3 ; 2 t j P R ",
"_ _ ` k % . # 4 Z S S D S S S S S S D D S C 4 # . * x ] / L ",
"W ) ] ` K l l p : ; , , : : , ; , : : , ; : p l x c K ( E L ",
"z Q ` [ [ { ] g O . . O O o o o o O . O o O g ] { ] ! T Y L ",
"Y E ! ! ~ ( ! z d i i a a a a a i i d i i d z ! ~ ! T Y Y Y ",
"Y P H z J J H J J J J E R R R R R T T J J J J J J J R Y Y Y "
};