/* XPM */
static char *_903_9bc11b6d1ace58e88dcb7b8c91233380abd147ca67e26eb298a54e7addc13875[] = {
/* columns rows colors chars-per-pixel */
"30 30 117 2 ",
"   c #040503",
".  c #050A05",
"X  c #080C07",
"o  c #090C08",
"O  c #0C140C",
"+  c #0C180D",
"@  c #161611",
"#  c #1B1617",
"$  c #1E1816",
"%  c #1F1A1B",
"&  c #221C19",
"*  c #132414",
"=  c #1C2417",
"-  c #132916",
";  c #1E261A",
":  c #172C18",
">  c #1B2F1B",
",  c #17321A",
"<  c #1B341D",
"1  c #1C3A1F",
"2  c #25221E",
"3  c #2B231E",
"4  c #212C1D",
"5  c #1E3C21",
"6  c #262121",
"7  c #2A2524",
"8  c #262E22",
"9  c #2A2D21",
"0  c #342722",
"q  c #382726",
"w  c #342A24",
"e  c #392A26",
"r  c #35282C",
"t  c #3C2C29",
"y  c #213720",
"u  c #2C3323",
"i  c #223B21",
"p  c #2B3D26",
"a  c #323426",
"s  c #313528",
"d  c #3C322A",
"f  c #37392A",
"g  c #3A3A2B",
"h  c #3F3336",
"j  c #432F2D",
"k  c #44322D",
"l  c #4B332F",
"z  c #433235",
"x  c #4B3533",
"c  c #4F3934",
"v  c #49393F",
"b  c #533735",
"n  c #523A35",
"m  c #583B37",
"M  c #563C3B",
"N  c #5B3D3A",
"B  c #1E4022",
"V  c #224526",
"C  c #2B4127",
"Z  c #264C29",
"A  c #2B4C2B",
"S  c #34422B",
"D  c #26522B",
"F  c #2B522E",
"G  c #2A5A2F",
"H  c #2B5D31",
"J  c #305430",
"K  c #355E35",
"L  c #2D6334",
"P  c #2F6937",
"I  c #316536",
"U  c #306A37",
"Y  c #326D3A",
"T  c #34743D",
"R  c #36783F",
"E  c #5B403E",
"W  c #62423F",
"Q  c #513F45",
"!  c #377B40",
"~  c #397D42",
"^  c #554146",
"/  c #5C4244",
"(  c #5B4448",
")  c #644543",
"_  c #694743",
"`  c #6D4A46",
"'  c #61474A",
"]  c #65494A",
"[  c #6D4C4A",
"{  c #704C47",
"}  c #734E4A",
"|  c #76504B",
" . c #7A524D",
".. c #775150",
"X. c #7A5350",
"o. c #815651",
"O. c #3C8445",
"+. c #3C8947",
"@. c #3E8748",
"#. c #3E8B49",
"$. c #3F914A",
"%. c #408D4B",
"&. c #42934D",
"*. c #45984F",
"=. c #479351",
"-. c #469A51",
";. c #4C9C56",
":. c #4AA456",
">. c #4EAC5A",
",. c #52A45D",
"<. c #56AA61",
"1. c #59AC63",
"2. c #5CB267",
"3. c #63BA6E",
"4. c #67BF72",
"5. c #69C174",
"6. c #6EC879",
/* pixels */
"Q ^ ^ ] { | | | | | | | } ' Q Q ^ ^ ' [ ..| | | | | | ` ( ^ ",
"^ ^ ( [ } | | | | | | | { ' ' Q ( ' [ } | | | | | | | [ [ ( ",
"^ ' [ X.| | | | | | |  .} [ ' ( ' [  .| ..| | | | | | } ` ` ",
"^ ] X.X.X.| | | | |  .|  .} [ ' [  .o.o.| | | | | } | | | } ",
"^ ] X.X.X. .{ | } N m b b b x z x m m N W W } | | | | | | | ",
"^ ] X.o.X.} } ` N l 0 3 3 7 2 2 3 3 3 w l W { { } | | | | | ",
"^ ] X.o. .{ _ N b w 4 < i i 1 < < < > 4 w c W W ` | | | | | ",
"( ] X.o.} N l e w p D L P U U L L P L F C w e l E ` | | | | ",
"^ ] | | ) z 8 8 i H ! &.&.&.$.$.%.*.*.~ H i 4 4 k E ` | | | ",
"^ ' } ) k s F H Y ~ #.-.&.&.&.&.&.&.*.+.R L G Z u d m ` | | ",
"^ ^ M k a A ! O.#.#.$.&.$.#.#.#.%.%.%.+.O.R ~ T F u t N ` ` ",
"Q z t 9 A Y $.-.=.#.#.#.#.+.+.#.+.O.+.%.%.&.*.#.T A u k m E ",
"r 7 4 Z ! @.$.$.#.#.@.@.#.@.+.+.O.+.%.;.,.,.-.&.+.T F u 0 e ",
"# = B ! $.-.=.$.$.#.#.@.+.+.+.+.O.+.*.<.3.3.,.-.&.+.T V 4 $ ",
"o - L -.:.-.-.=.$.$.$.#.@.@.+.+.O.#.*.2.5.6.3.:.&.*.$.H , X ",
". , Y ;.>.$.@.#.$.$.$.#.@.+.+.#.&.%.&.;.1.5.5.2.;.*.&.U , X ",
". , Y >.:.~ H D H ! O.#.@.O.+.#.=.$.#.#.-.,.<.<.;.-.&.U , . ",
". , T >.$.P - + - D ! @.+.~ ! ~ O.O.O.! ~ O.%.=.&.*.&.U , X ",
". , T >.$.D +   O 5 Y #.O.~ ! G Z B L Y ! ! ! ! O.%.&.U < X ",
". 5 ! >.=.Z +   O 5 Y @.@.~ L 5 * * 5 L Y Y ! Y R +.&.T 1 X ",
". 5 ! :.=.L < * , D T @.#.O.L *   . * D ! ! ! T R @.%.Y 1 O ",
"O > H =.$.~ Y P P T ! ! @.~ L * . . * D ~ ~ ! ! ~ @.O.I i @ ",
"6 7 A Y @.%.#.#.@.~ ~ ! ~ ~ Y 5 * * 5 L O.~ ~ O.%.O.T F a w ",
"h d s A Y ~ @.#.#.@.O.~ O.@.! P H H P ! @.@.~ ! ~ Y J f x N ",
"Q Q c g C Z Z L ~ &.&.%.#.%.&.&.$.=.$.-.&.%.T H Z C f n W { ",
"^ ^ / n d a u A U %.%.~ ~ O.+.@.$.$.#.#.%.~ K f u d c _ { ` ",
"Q / ) ) m l d a A K I G G G H H H H H L L J S k x m _ | ` _ ",
"Q ^ / ) _ ) m w = - - * * * * * * * * * - ; t N W ` } ` _ / ",
"Q Q ^ / ) ) N j 3 & & & & & % % % % & & & 0 j N _ _ _ ) / ^ ",
"Q Q Q Q ^ N M x j q q q q q r r r r r r q j l M E E E / ^ ^ "
};
